<svg width="16" height="17" viewBox="0 0 16 17" fill="none" xmlns="http://www.w3.org/2000/svg">
<g clip-path="url(#clip0_7_3)">
<path d="M9 4.5C9 2.84315 10.3431 1.5 12 1.5C13.6569 1.5 15 2.84315 15 4.5C15 6.15685 13.6569 7.5 12 7.5C10.3431 7.5 9 6.15685 9 4.5ZM9 4.5L1 4.5M7 12.5C7 14.1569 5.65685 15.5 4 15.5C2.34315 15.5 1 14.1569 1 12.5C1 10.8431 2.34315 9.5 4 9.5C5.65685 9.5 7 10.8431 7 12.5ZM7 12.5H15" stroke="#2B2B2B" stroke-width="2" stroke-linecap="round"/>
</g>
<defs>
<clipPath id="clip0_7_3">
<rect width="16" height="16" fill="white" transform="translate(0 0.5)"/>
</clipPath>
</defs>
</svg>
